<svg id="visual" viewBox="0 0 960 540" width="960" height="540" xmlns="http://www.w3.org/2000/svg" xmlns:xlink="http://www.w3.org/1999/xlink" version="1.1"><rect x="0" y="0" width="960" height="540" fill="#97d0ff"></rect><path d="M0 380L20 387C40 394 80 408 120 409.8C160 411.7 200 401.3 240 397.2C280 393 320 395 360 401C400 407 440 417 480 421.2C520 425.3 560 423.7 600 421C640 418.3 680 414.7 720 409C760 403.3 800 395.7 840 397C880 398.3 920 408.7 940 413.8L960 419L960 541L940 541C920 541 880 541 840 541C800 541 760 541 720 541C680 541 640 541 600 541C560 541 520 541 480 541C440 541 400 541 360 541C320 541 280 541 240 541C200 541 160 541 120 541C80 541 40 541 20 541L0 541Z" fill="#0066FF" stroke-linecap="round" stroke-linejoin="miter"></path></svg>